<svg xmlns="http://www.w3.org/2000/svg" version="1.1" xmlns:xlink="http://www.w3.org/1999/xlink" xmlns:svgjs="http://svgjs.com/svgjs" width="100" height="100"><svg version="1.1" xmlns="http://www.w3.org/2000/svg" xmlns:xlink="http://www.w3.org/1999/xlink" x="0px" y="0px" viewBox="0 0 100 100" style="enable-background:new 0 0 100 100;" xml:space="preserve">
<style type="text/css">
	.st0{fill:#282828;}
	.st1{fill:#FFFFFF;}
	.st2{fill:#ED800D;}
</style>
<g id="SvgjsG1001">
	<circle class="st0" cx="49.5" cy="50.5" r="49.5"></circle>
</g>
<g id="SvgjsG1000">
	<path class="st1" d="M12.42,10.16v78.57h5.1l1.27-9.65l0.36-2.83V10.16H12.42z M48.23,36.06c-3.62-2.29-7.57-3.44-11.82-3.44
		c-3.98,0-7.51,0.99-10.55,2.92c-2.8,1.78-5.03,4.22-6.72,7.36c-0.18,0.3-0.36,0.63-0.51,0.96c-1.75,3.62-2.62,7.93-2.62,12.96h3.14
		c0-4.04,0.75-7.42,2.32-10.13c1.57-2.71,3.59-4.76,6.09-6.15c2.5-1.39,5.19-2.08,7.99-2.08c3.14,0,6.03,0.87,8.65,2.62
		c1.42-1.78,3.05-3.26,4.88-4.46C48.81,36.42,48.51,36.24,48.23,36.06z M56.89,45.88c-0.93-1.84-2.02-3.5-3.26-4.97
		c-0.18,0.09-0.33,0.18-0.48,0.3c-1.69,1.21-3.14,2.71-4.28,4.52c0.69,0.96,1.3,2.05,1.87,3.2c1.63,3.35,2.41,7.42,2.41,12.18
		c0,4.82-0.78,8.95-2.41,12.36c-0.57,1.21-1.21,2.29-1.9,3.29c-1.27,1.87-2.8,3.41-4.52,4.58c-0.06,0.03-0.12,0.09-0.18,0.12
		c-2.59,1.72-5.43,2.59-8.47,2.59c-2.83,0-5.49-0.69-7.99-2.08c-2.5-1.39-4.55-3.44-6.15-6.15c-1.6-2.71-2.38-6.06-2.38-10.01h-3.14
		c0,5.06,0.87,9.44,2.65,13.05c0.03,0.06,0.06,0.15,0.12,0.21c1.75,3.53,4.1,6.21,7.08,8.08c3.01,1.9,6.42,2.86,10.19,2.86
		c4.34,0,8.35-1.21,12.03-3.56c0.27-0.18,0.54-0.36,0.81-0.57c1.69-1.21,3.2-2.62,4.55-4.25c1.3-1.54,2.41-3.29,3.41-5.22
		c2.2-4.31,3.29-9.41,3.29-15.32C60.14,55.23,59.06,50.14,56.89,45.88z"></path>
	<path class="st2" d="M84.83,45.61c-2.11-4.28-5.06-7.51-8.8-9.68c-3.71-2.2-8.05-3.32-12.93-3.32c-4.88,0-9.2,1.12-12.93,3.32
		c-0.36,0.21-0.75,0.45-1.09,0.69c1.69,1.18,3.23,2.62,4.55,4.28c2.56-1.72,5.79-2.56,9.59-2.56c6.06,0,10.55,2.11,13.51,6.3
		c2.92,4.19,4.4,9.74,4.4,16.64c0,4.58-0.66,8.59-1.99,12.03c-1.33,3.41-3.35,6.09-6.03,7.99c-2.71,1.9-6.09,2.86-10.13,2.86
		c-3.77,0-6.96-0.84-9.53-2.53c-1.51-0.96-2.8-2.23-3.89-3.77c-0.24-0.36-0.48-0.72-0.72-1.12c-1.27,1.87-2.8,3.41-4.52,4.58
		c-0.06,0.03-0.12,0.09-0.18,0.12c1.39,1.75,2.98,3.23,4.76,4.43c0.39,0.3,0.84,0.57,1.27,0.81c3.74,2.2,8.05,3.32,12.93,3.32
		c4.88,0,9.23-1.12,12.93-3.32c3.74-2.17,6.69-5.43,8.8-9.71C86.94,72.75,88,67.5,88,61.29S86.94,49.86,84.83,45.61z"></path>
</g>
</svg><style>@media (prefers-color-scheme: light) { :root { filter: none; } }
</style></svg>